<?xml version="1.0" encoding="UTF-8" standalone="no"?>
<!-- Created with Inkscape (http://www.inkscape.org/) -->

<svg
   width="80mm"
   height="41mm"
   viewBox="0 0 80 41"
   version="1.1"
   id="svg1"
   inkscape:version="1.3 (0e150ed6c4, 2023-07-21)"
   sodipodi:docname="rbf-logo-light.svg"
   xmlns:inkscape="http://www.inkscape.org/namespaces/inkscape"
   xmlns:sodipodi="http://sodipodi.sourceforge.net/DTD/sodipodi-0.dtd"
   xmlns="http://www.w3.org/2000/svg"
   xmlns:svg="http://www.w3.org/2000/svg">
  <sodipodi:namedview
     id="namedview1"
     pagecolor="#ffffff"
     bordercolor="#000000"
     borderopacity="0.25"
     inkscape:showpageshadow="2"
     inkscape:pageopacity="0.0"
     inkscape:pagecheckerboard="0"
     inkscape:deskcolor="#d1d1d1"
     inkscape:document-units="mm"
     inkscape:zoom="3.9243208"
     inkscape:cx="155.56832"
     inkscape:cy="78.48492"
     inkscape:window-width="1920"
     inkscape:window-height="982"
     inkscape:window-x="0"
     inkscape:window-y="28"
     inkscape:window-maximized="1"
     inkscape:current-layer="layer1" />
  <defs
     id="defs1" />
  <g
     inkscape:label="Layer 1"
     inkscape:groupmode="layer"
     id="layer1">
    <path
       id="rect7"
       style="fill:#eaeff4;stroke-width:0.45327;-inkscape-stroke:none;fill-opacity:1"
       d="m 34.113962,0 v 0.00113236 h 13.659174 c 1.917193,0 3.565887,0.51810109 4.946237,1.55337414 1.41872,0.9969288 2.492345,2.3002143 3.220833,3.9106397 0.766888,1.6104287 1.150247,3.2786975 1.150247,5.0041648 0,1.878806 -0.497908,3.700211 -1.494876,5.464018 -0.958576,1.763771 -2.416159,3.086056 -4.371651,3.967971 2.338948,0.690161 4.179916,1.898496 5.521919,3.623962 1.206804,1.508478 1.885482,3.442041 2.037244,5.800412 v 1.958262 c -0.149162,2.03926 -0.808725,3.728266 -1.979888,5.066733 -1.303693,1.533772 -3.067485,2.664908 -5.291409,3.393448 -2.223911,0.728532 -4.67798,1.092915 -7.362028,1.092915 h 14.634487 v -5.68e-4 h 4.421173 V 25.652028 H 76.894413 V 16.564652 H 63.205424 V 9.7783579 H 80 V 5.8873851e-4 H 58.784251 V 0 Z M 0,5.8873851e-4 V 40.836504 H 11.215302 V 28.297741 h 4.543707 l 7.189412,12.538763 h 12.30822 L 26.629685,25.824641 c 1.227014,-0.881915 2.281022,-1.916925 3.162938,-3.105587 0.881881,-1.226998 1.553114,-2.568843 2.013229,-4.025915 0.460115,-1.457046 0.690389,-2.971593 0.690389,-4.543675 0,-1.725461 -0.345376,-3.431718 -1.035564,-5.1188249 C 30.80882,7.3435181 29.869352,5.8289646 28.64236,4.4869363 27.41536,3.1065807 25.958377,2.013394 24.271257,1.2081816 22.58414,0.40296884 20.743777,5.8873851e-4 18.749895,5.8873851e-4 Z M 35.292321,9.5490132 v 6.2690888 h 7.649871 c 0.498458,0 0.977385,-0.07667 1.437538,-0.22995 0.460114,-0.191694 0.843489,-0.517537 1.15023,-0.977663 0.30677,-0.460109 0.460463,-1.112333 0.460463,-1.955901 0,-0.766856 -0.134141,-1.360945 -0.402513,-1.782724 C 45.357831,10.411748 45.032005,10.085919 44.610237,9.8942067 44.226823,9.6641449 43.78583,9.5490132 43.287373,9.5490132 Z M 11.215302,9.7783579 h 6.786887 c 0.460126,0 0.920062,0.1721178 1.380182,0.5172021 0.498462,0.345101 0.901444,0.843625 1.208175,1.495467 0.34511,0.613505 0.51722,1.399854 0.51722,2.358437 0,0.92023 -0.153134,1.705992 -0.459875,2.357844 -0.268417,0.651847 -0.613234,1.150358 -1.035008,1.495443 -0.421756,0.345111 -0.862721,0.517809 -1.322836,0.517809 H 11.215302 Z M 35.292321,24.560272 v 6.844232 h 8.857453 c 0.613487,0 1.169596,-0.134135 1.668054,-0.402551 0.498468,-0.268389 0.881885,-0.651779 1.150247,-1.150231 0.306779,-0.498468 0.459887,-1.092551 0.459887,-1.782745 0,-0.690155 -0.134132,-1.284854 -0.402526,-1.783312 -0.230064,-0.536804 -0.555894,-0.958188 -0.977667,-1.264923 -0.4218,-0.306769 -0.920319,-0.46047 -1.49547,-0.46047 z"
       sodipodi:nodetypes="ccsccsccccccscccccccccccccccccccccccssccsscccscssccsccsccscssccccsscscssc"
       inkscape:label="Logo Black" />
  </g>
</svg>
